<?xml version="1.0" encoding="UTF-8"?>
<svg id="Layer_1" data-name="Layer 1" xmlns="http://www.w3.org/2000/svg" viewBox="0 0 1174.37 512.24">
  <defs>
    <style>
      .cls-1, .cls-2 {
        fill: #3393d0;
      }

      .cls-3 {
        fill: #12090a;
      }

      .cls-4, .cls-5 {
        fill: #ffdf4f;
      }

      .cls-2, .cls-5 {
        fill-rule: evenodd;
      }
    </style>
  </defs>
  <polygon class="cls-3" points="0 194.62 76.27 194.62 76.27 202.97 9.73 202.97 9.73 255.6 65.61 255.6 65.61 263.95 9.73 263.95 9.73 325.22 78.38 325.22 78.38 333.57 0 333.57 0 194.62"/>
  <path class="cls-3" d="M124.79,194.62h10.2l58.63,97.96,15.78,27.75h.85c-.55-13.62-1.23-27.08-1.23-40.53v-85.19h9.18v138.95h-10.19l-58.63-97.99-15.78-27.73h-.85c.55,13.33,1.23,25.94,1.23,39.39v86.33h-9.18v-138.95Z"/>
  <polygon class="cls-3" points="275.17 194.62 351.43 194.62 351.43 202.97 284.89 202.97 284.89 255.6 340.78 255.6 340.78 263.95 284.89 263.95 284.89 325.22 353.55 325.22 353.55 333.57 275.17 333.57 275.17 194.62"/>
  <path class="cls-3" d="M399.96,194.62h39.85c27.71,0,45.86,10.12,45.86,36.69s-18.15,38.46-45.86,38.46h-30.12v63.81h-9.73v-138.96ZM437.26,261.59c24.66,0,38.37-9.74,38.37-30.28s-13.71-28.51-38.37-28.51h-27.58v58.79h27.58ZM437.62,266.92l9.3-2.79,41.4,69.44h-11.3l-39.41-66.66Z"/>
  <path class="cls-3" d="M521.91,263.82c0-44.07,24.88-71.73,61.67-71.73,18.79,0,30.54,8.81,37.99,16.61l-5.71,6.5c-7.15-7.8-16.96-14.3-32.14-14.3-31.94,0-51.61,24.25-51.61,62.79s18.65,63.6,50.42,63.6c12.56,0,24.41-3.88,31.14-10.5v-43.27h-33.25v-8.26h42.56v55.12c-8.58,9.28-22.89,15.73-41.2,15.73-35.83,0-59.86-28.13-59.86-72.28"/>
  <path class="cls-3" d="M696.53,277.23l-41.84-82.62h10.36l21.19,43.48c4.91,10.14,9.44,19.82,14.74,30h.85c5.31-10.18,10.62-19.87,15.16-30l21.19-43.48h9.9l-41.84,82.62v56.34h-9.73v-56.34Z"/>
  <polygon class="cls-1" points="5.27 6.2 79.37 6.2 79.37 14.35 14.76 14.35 14.76 68.35 69.34 68.35 69.34 76.49 14.76 76.49 14.76 141.73 5.27 141.73 5.27 6.2"/>
  <rect class="cls-1" x="103.67" y="6.2" width="9.49" height="135.53"/>
  <path class="cls-1" d="M153.18,6.2h38.87c27.02,0,44.72,9.87,44.72,35.79s-17.7,37.51-44.72,37.51h-29.38v62.24h-9.49V6.2ZM189.57,71.52c24.05,0,37.42-9.5,37.42-29.53s-13.37-27.8-37.42-27.8h-26.91v57.33h26.91ZM189.92,76.72l9.08-2.72,40.37,67.73h-11.01l-38.44-65.01Z"/>
  <path class="cls-1" d="M254.92,123.78l6.11-6.5c9.86,11.13,24.05,18.32,39.89,18.32,20.76,0,33.84-11.08,33.84-27.23s-11.08-22.32-24.47-28.32l-20.61-9.21c-11.84-5.2-27.58-13.63-27.58-33.71S279.01,3.73,301.62,3.73c16.38,0,29.58,7.43,37.87,16.23l-5.48,6.29c-7.96-8.41-18.77-13.92-32.39-13.92-17.94,0-29.99,9.57-29.99,24.23,0,15.82,13.57,21.78,23.51,26.14l20.57,9.15c15.22,6.77,28.61,15.14,28.61,35.87s-17.12,36.48-43.48,36.48c-19.88,0-35.19-8.39-45.92-20.42"/>
  <polygon class="cls-1" points="402.17 14.35 358.89 14.35 358.89 6.2 454.94 6.2 454.94 14.35 411.66 14.35 411.66 141.73 402.17 141.73 402.17 14.35"/>
  <path class="cls-4" d="M470.66,127.99l15.4-20.97c12.53,9.74,24.66,15.7,38.97,15.7,15.4,0,22.64-7.22,22.64-16.84,0-11.8-15.29-17.08-30.34-22.81-18.51-6.93-39.65-17.53-39.65-41.02S497.44,0,529.05,0c19.65,0,35.4,7.97,46.9,16.85l-15.17,20.28c-9.89-7.22-19.83-12.26-30.92-12.26-14.19,0-20.92,6.76-20.92,15.59,0,11.11,14.25,15.35,29.54,20.96,19.08,7.11,40.45,16.28,40.45,42.51,0,24.18-19.19,43.66-54.82,43.66-19.31,0-39.65-8.25-53.45-19.59"/>
  <path class="cls-4" d="M606.93,91.67V3.44h33.1v83.99c0,23.14,6.66,31.85,21.95,31.85,12.41,0,20.57-5.73,31.26-19.48V3.44h33.1v140.71h-27.12l-2.53-20.74h-.92c-12.41,14.67-26.09,24.18-45.39,24.18-30.23,0-43.45-20.39-43.45-55.92"/>
  <path class="cls-4" d="M768.31,3.44h27.12l2.53,19.02h.91C811.52,10.2,825.89,0,845.2,0c30.23,0,43.45,20.39,43.45,55.92v88.23h-33.1V60.16c0-23.15-6.67-31.86-21.95-31.86-12.42,0-20.58,6.07-32.19,17.53v98.31h-33.1V3.44Z"/>
  <path class="cls-2" d="M984.81,309.06l-4.67,33.55c-.05.31-.11.63-.2.92-15.35-2.91-31.5-5.66-48.39-8.17l4.6-33.05c.57-4.11,4.41-7.02,8.54-6.43l33.67,4.65c4.12.57,7.04,4.4,6.45,8.53"/>
  <path class="cls-2" d="M932.26,301.79l-4.6,33c-15.62-2.3-31.88-4.38-48.72-6.19l4.66-33.56c.57-4.11,4.41-7.02,8.56-6.43l33.65,4.65c4.12.57,7.04,4.4,6.45,8.53"/>
  <path class="cls-2" d="M889.98,249.16c14.35-5.71,30.17-8.27,46.46-6.96,2.23,1.58,3.52,4.32,3.12,7.19l-4.67,33.56c-.57,4.12-4.42,7.02-8.55,6.45l-33.66-4.66c-4.13-.57-7.04-4.4-6.47-8.53l3.77-27.05Z"/>
  <path class="cls-2" d="M848.98,278.7c10.02-11.87,22.62-21.38,36.81-27.75l-3.44,24.74c-.58,4.12-4.42,7.02-8.56,6.44l-24.81-3.43Z"/>
  <path class="cls-2" d="M879.73,294.53l-4.69,33.54s-.02.09-.02.13c-12.27-1.26-24.84-2.39-37.7-3.34-3.44-.25-6.93-.5-10.41-.74,3.24-15.67,9.96-29.86,19.22-41.87l12,1.65,15.13,2.1c4.14.57,7.04,4.4,6.47,8.53"/>
  <path class="cls-2" d="M1031.36,353.21c-.25.36-.54.7-.86,1-3.08-.7-6.23-1.42-9.42-2.17-11.77-2.64-24.18-5.24-37.13-7.77,0-.38.02-.74.07-1.13l4.68-33.57c.57-4.11,4.42-7,8.54-6.43l15.13,2.1,12.03,1.65c5.72,14.31,8.29,30.07,6.97,46.32"/>
  <path class="cls-2" d="M948.4,243.86c16.04,3.16,30.55,9.92,42.81,19.31l-3.77,27.05c-.57,4.12-4.41,7.02-8.55,6.45l-33.66-4.65c-4.13-.57-7.03-4.4-6.46-8.53l4.67-33.56c.4-2.87,2.39-5.15,4.96-6.07"/>
  <path class="cls-2" d="M1022.6,302.72l-24.81-3.43c-4.13-.57-7.04-4.41-6.47-8.53l3.44-24.73c11.91,9.99,21.44,22.55,27.84,36.7"/>
  <path class="cls-2" d="M984.81,309.06l-4.67,33.55c-.05.31-.11.63-.2.92-15.35-2.91-31.5-5.66-48.39-8.17l4.6-33.05c.57-4.11,4.41-7.02,8.54-6.43l33.67,4.65c4.12.57,7.04,4.4,6.45,8.53"/>
  <path class="cls-2" d="M932.26,301.79l-4.6,33c-15.62-2.3-31.88-4.38-48.72-6.19l4.66-33.56c.57-4.11,4.41-7.02,8.56-6.43l33.65,4.65c4.12.57,7.04,4.4,6.45,8.53"/>
  <path class="cls-2" d="M888.32,261.14c15.31-7.26,32.77-10.43,50.77-8.31l-4.19,30.12c-.58,4.12-4.42,7.02-8.55,6.45l-33.66-4.66c-4.14-.57-7.04-4.4-6.47-8.53l2.1-15.07Z"/>
  <path class="cls-2" d="M861.36,280.41c6.64-6.83,14.31-12.61,22.7-17.12l-1.72,12.39c-.58,4.12-4.42,7.02-8.56,6.45l-12.42-1.72Z"/>
  <path class="cls-2" d="M879.73,294.53l-4.69,33.54s-.02.09-.02.13c-12.27-1.26-24.84-2.39-37.7-3.34,3.47-15.62,10.8-29.57,20.81-40.97l15.13,2.1c4.14.57,7.04,4.4,6.47,8.53"/>
  <path class="cls-2" d="M1021.08,352.04c-11.78-2.64-24.18-5.24-37.13-7.77,0-.38.02-.74.06-1.13l4.69-33.57c.57-4.11,4.41-6.99,8.54-6.43l15.13,2.1c6.76,14.15,9.98,30.18,8.71,46.8"/>
  <path class="cls-2" d="M942.96,253.36c17.9,2.85,33.83,10.65,46.58,21.79l-2.1,15.07c-.57,4.12-4.42,7.02-8.55,6.45l-33.65-4.65c-4.14-.57-7.04-4.4-6.46-8.53l4.19-30.13Z"/>
  <path class="cls-2" d="M1010.21,301l-12.43-1.72c-4.14-.57-7.04-4.4-6.47-8.53l1.73-12.39c6.84,6.62,12.64,14.26,17.17,22.63"/>
  <path class="cls-5" d="M1119.89,371.54c-6.86.4-13.24.9-19.13,1.55-16.86-5.17-36.45-10.65-58.51-16.07,6.5-61.08-36.79-116.72-98.27-125.21-60.72-8.42-116.94,32.25-128.36,91.62-22.89-1.31-46.64-2.07-71.18-2.12-2.54-.94-5.16-1.87-7.88-2.82,84.39-4.85,94.89-27.59,38.97-91.98,76.35,38.26,95.87,22.55,79.91-60.22,46.37,70.33,71.44,68.1,99.4-12.35,4.87,84.13,27.67,94.6,92.26,38.87-37.97,75.3-23.5,95.73,60.41,79.64-70.55,46.23-68.31,71.21,12.39,99.09"/>
  <path class="cls-1" d="M53.37,512.24s492.72-255,1121-112.82c0,0-522.19-236.2-1121,112.82"/>
  <path class="cls-3" d="M425.56,477.05h-1.36c-8.33,0-14.75-4.69-16.83-12.45,0,15.06-13.39,27.06-28.78,27.06-16.65,0-29.31-14.07-29.31-32.11v-9.02h6.42v7.85c0,16.23,8.78,26.97,23.17,26.97,12.12,0,22.71-10.11,22.71-20.93,0-8.11-4.34-12.27-11.76-12.27v-5.68h-.09c0-.09,1.63-.18,4.89-.18,5.52,0,13.12,5.68,15.93,12.9,3.35,8.66,6.33,11.54,13.12,11.54h1.9v6.31ZM376.61,506.19h-6.42v-7.67h6.42v7.67ZM388.46,506.19h-6.42v-7.67h6.42v7.67ZM485.9,467.94v9.11h-62.71v-6.31h55.02c.09-1.17.18-2.26.18-3.25,0-15.25-8.05-24-22.26-24-7.69,0-13.39,2.97-17.01,8.93-.9-.99-2.72-2.8-5.52-5.59,5.16-6.4,12.58-9.57,22.44-9.57,18.01,0,29.86,11.91,29.86,30.67ZM460.93,490.77h-6.51v-7.67h6.51v7.67ZM526.6,477.05h-15.57c-1.72,9.29-7.87,14.16-18.37,14.79v-6.04c8.42,0,12.67-4.6,12.67-15.25v-34.46h6.34v34.64h14.93v6.31ZM555.82,477.05h-31.22v-6.23h5.79c3.89,0,6.43-1.26,7.69-3.69.9-1.72,1.36-4.6,1.36-8.75v-22.29h6.34v25.08c0,3.88-.54,7.13-1.72,9.56h11.76v6.31ZM534.01,490.85h-6.42v-7.67h6.42v7.67ZM545.87,490.85h-6.42v-7.67h6.42v7.67ZM575.45,436.1v25.08c0,10.55-4.43,15.87-13.3,15.87h-7.87v-6.23h5.79c3.9,0,6.43-1.26,7.69-3.79.9-1.62,1.36-4.51,1.36-8.66v-22.29h6.34ZM575.45,429.61h-6.42v-7.67h6.42v7.67ZM598.88,486.52l-3.53.45c-.45-2.08-1.54-3.16-3.44-3.16-2.44,0-3.71,1.62-3.71,4.87,0,1.26.27,2.35.9,3.16h9.77v3.61h-17.37v-3.61h3.53c-.36-.9-.54-1.98-.54-3.16,0-2.26.54-4.15,1.63-5.5,1.36-1.54,3.26-2.35,5.7-2.35,3.9,0,6.25,1.9,7.06,5.68ZM594.81,477.05h-6.34v-58.36h6.34v58.36Z"/>
  <path class="cls-3" d="M695.69,477.05h-18.28c-2.53,4.6-5.88,8.21-10.13,10.83-4.43,2.8-9.14,4.15-14.3,4.15-7.87,0-14.57-2.98-20.09-8.84-5.7-5.95-8.59-13.26-8.59-22.01v-25.08h10.22v23.9c0,5.86,1.54,10.92,4.52,15.15,3.53,4.78,8.14,7.22,13.94,7.22s10.32-2.43,13.84-7.22c2.98-4.24,4.43-9.29,4.43-15.15v-23.9h10.22v25.08c0,1.89-.18,3.7-.54,5.59h14.75v10.28ZM658.14,427.8h-9.96v-10.01h9.96v10.01ZM692.6,466.77h7.42c5.16,0,7.69-3.52,7.69-10.64v-20.03h10.22v19.67c0,5.32-.54,8.75-1.62,10.46v.54h9.41c5.16,0,7.69-3.34,7.69-10.01v-20.65h10.22v19.67c0,5.86-.72,9.56-2.08,11h9.86c5.16,0,7.69-3.34,7.69-9.92v-20.75h10.23v19.48c0,12.99-7.24,21.47-17.56,21.47h-59.18v-10.28Z"/>
  <path class="cls-3" d="M873.82,477.05h-56.01c-17.37,0-26.06-8.75-26.06-26.25v-14.79h6.34v14.79c0,13.25,6.33,19.93,18.91,19.93h26.51c3.8,0,6.33-1.17,7.69-3.61.81-1.72,1.26-4.6,1.26-8.75v-22.29h6.34v25.08c0,3.88-.54,7.13-1.72,9.56h16.74v6.31ZM822.88,436.01h-6.42v-7.67h6.42v7.67ZM834.73,436.01h-6.42v-7.67h6.42v7.67ZM944.84,436.1v25.08c0,10.55-4.44,15.87-13.39,15.87h-59.9v-6.31h8.41c5.79,0,8.96-3.88,9.59-11.54v-23.1h6.33v25.08c0,3.69-.54,6.76-1.54,9.2v.36h11.85c5.79,0,7.69-2.8,7.69-12.36v-22.29h6.33v25.08c0,3.88-.54,7.13-1.72,9.56h10.86c6.79,0,9.05-2.8,9.05-12.36v-22.29h6.43ZM985.54,477.05h-15.56c-1.72,9.29-7.87,14.16-18.37,14.79v-6.04c8.41,0,12.67-4.6,12.67-15.25v-34.46h6.34v34.64h14.92v6.31ZM1033.95,456.57c0,11.73-7.42,20.48-18.83,20.48h-32.12v-6.31h17.65c-2.99-3.61-4.52-8.3-4.52-14.07,0-11.73,7.33-20.48,19.09-20.48s18.73,8.12,18.73,20.39ZM1026.97,455.95c0-9.02-4.07-14.52-11.49-14.52-8.05,0-12.21,6.04-12.21,15.61,0,9.02,4.43,14.79,11.85,14.79,7.88,0,11.85-5.32,11.85-15.87ZM1018.47,429.61h-6.51v-7.67h6.51v7.67Z"/>
</svg>